<svg xmlns="http://www.w3.org/2000/svg" viewBox="0 0 100 140" width="200" height="280">
  <defs>
    <linearGradient id="tG" x1="0" y1="0" x2="0" y2="1">
      <stop offset="0" stop-color="#7fc16a"></stop>
      <stop offset="1" stop-color="#3d7a3d"></stop>
    </linearGradient>
    <linearGradient id="tTrunk" x1="0" y1="0" x2="0" y2="1">
      <stop offset="0" stop-color="#8a5a35"></stop>
      <stop offset="1" stop-color="#5a3a20"></stop>
    </linearGradient>
  </defs>
  <ellipse cx="50" cy="132" rx="26" ry="5" fill="#000" opacity="0.18"></ellipse>
  
  <path d="M44 130 L42 100 L58 100 L56 130 Z" fill="url(#tTrunk)" stroke="#3d2614" stroke-width="2" stroke-linejoin="round"></path>
  
  <path d="M14 108 C20 96 30 88 50 92 C70 88 80 96 86 108 C72 116 56 114 50 110 C44 114 28 116 14 108 Z" fill="#4f9a48" stroke="#2c5a2a" stroke-width="2" stroke-linejoin="round"></path>
  
  <path d="M20 80 C26 64 36 56 50 60 C64 56 74 64 80 80 C68 88 56 86 50 82 C44 86 32 88 20 80 Z" fill="url(#tG)" stroke="#2c5a2a" stroke-width="2" stroke-linejoin="round"></path>
  
  <path d="M28 54 C34 38 42 30 50 32 C58 30 66 38 72 54 C62 60 56 58 50 56 C44 58 38 60 28 54 Z" fill="#7fc16a" stroke="#2c5a2a" stroke-width="2" stroke-linejoin="round"></path>
  
  <path d="M38 36 C42 22 48 14 50 12 C52 14 58 22 62 36 C56 38 52 36 50 36 C48 36 44 38 38 36 Z" fill="#9bd384" stroke="#2c5a2a" stroke-width="2" stroke-linejoin="round"></path>
  
  <path d="M36 46 C40 38 46 32 50 30" stroke="#d8f0bf" stroke-width="2" fill="none" stroke-linecap="round" opacity="0.7"></path>
  <path d="M26 74 C32 66 40 62 46 62" stroke="#cdeab2" stroke-width="2" fill="none" stroke-linecap="round" opacity="0.6"></path>
</svg>