<svg xmlns="http://www.w3.org/2000/svg" viewBox="0 0 64 64" width="128" height="128">
  <defs>
    <linearGradient id="wB" x1="0" y1="0" x2="0" y2="1">
      <stop offset="0" stop-color="#b48458"></stop>
      <stop offset="1" stop-color="#8a5a35"></stop>
    </linearGradient>
    <radialGradient id="wEnd" cx="0.5" cy="0.5" r="0.6">
      <stop offset="0" stop-color="#e8c79c"></stop>
      <stop offset="0.55" stop-color="#c8a070"></stop>
      <stop offset="1" stop-color="#8a5a35"></stop>
    </radialGradient>
  </defs>
  <ellipse cx="32" cy="56" rx="22" ry="3.5" fill="#000" opacity="0.15"></ellipse>
  
  <rect x="8" y="22" width="48" height="24" rx="12" fill="url(#wB)" stroke="#5a3a20" stroke-width="2"></rect>
  
  <path d="M14 28 C20 30 28 30 36 28 C44 26 50 28 54 30" stroke="#6b4324" stroke-width="1.4" fill="none" stroke-linecap="round" opacity="0.6"></path>
  <path d="M14 40 C22 38 30 40 38 40 C46 40 50 38 54 40" stroke="#6b4324" stroke-width="1.4" fill="none" stroke-linecap="round" opacity="0.6"></path>
  
  <ellipse cx="14" cy="34" rx="6" ry="12" fill="url(#wEnd)" stroke="#5a3a20" stroke-width="2"></ellipse>
  <ellipse cx="14" cy="34" rx="3.5" ry="8" fill="none" stroke="#8a5a35" stroke-width="1"></ellipse>
  <ellipse cx="14" cy="34" rx="1.5" ry="4" fill="none" stroke="#8a5a35" stroke-width="1"></ellipse>
  
  <path d="M22 26 C30 24 40 24 50 26" stroke="#f0d4a8" stroke-width="1.5" fill="none" stroke-linecap="round" opacity="0.7"></path>
</svg>