<svg xmlns="http://www.w3.org/2000/svg" viewBox="0 0 160 160" width="320" height="320">
  <defs>
    <linearGradient id="cWall" x1="0" y1="0" x2="0" y2="1">
      <stop offset="0" stop-color="#b48458"></stop>
      <stop offset="1" stop-color="#8a5a35"></stop>
    </linearGradient>
    <linearGradient id="cRoof" x1="0" y1="0" x2="0" y2="1">
      <stop offset="0" stop-color="#6b4324"></stop>
      <stop offset="1" stop-color="#3d2614"></stop>
    </linearGradient>
  </defs>
  <ellipse cx="80" cy="148" rx="58" ry="6" fill="#000" opacity="0.18"></ellipse>
  
  <rect x="26" y="64" width="108" height="78" fill="url(#cWall)" stroke="#3d2614" stroke-width="2.5"></rect>
  
  <line x1="26" y1="78" x2="134" y2="78" stroke="#5a3a20" stroke-width="1.2" opacity="0.6"></line>
  <line x1="26" y1="92" x2="134" y2="92" stroke="#5a3a20" stroke-width="1.2" opacity="0.6"></line>
  <line x1="26" y1="106" x2="134" y2="106" stroke="#5a3a20" stroke-width="1.2" opacity="0.6"></line>
  <line x1="26" y1="120" x2="134" y2="120" stroke="#5a3a20" stroke-width="1.2" opacity="0.6"></line>
  
  <path d="M14 70 L80 22 L146 70 L134 70 L80 32 L26 70 Z" fill="url(#cRoof)" stroke="#2a1808" stroke-width="2.5" stroke-linejoin="round"></path>
  
  <path d="M22 66 L80 26 L138 66" stroke="#8a5a35" stroke-width="1.4" fill="none" opacity="0.6"></path>
  
  <rect x="104" y="32" width="12" height="22" fill="#6b4324" stroke="#2a1808" stroke-width="2"></rect>
  
  <rect x="68" y="96" width="24" height="46" rx="3" fill="#5a3a20" stroke="#2a1808" stroke-width="2"></rect>
  <circle cx="86" cy="120" r="1.6" fill="#f5d77a"></circle>
  
  <rect x="38" y="84" width="20" height="20" fill="#f8d97a" stroke="#2a1808" stroke-width="2"></rect>
  <line x1="48" y1="84" x2="48" y2="104" stroke="#2a1808" stroke-width="1.2"></line>
  <line x1="38" y1="94" x2="58" y2="94" stroke="#2a1808" stroke-width="1.2"></line>
  <rect x="102" y="84" width="20" height="20" fill="#f8d97a" stroke="#2a1808" stroke-width="2"></rect>
  <line x1="112" y1="84" x2="112" y2="104" stroke="#2a1808" stroke-width="1.2"></line>
  <line x1="102" y1="94" x2="122" y2="94" stroke="#2a1808" stroke-width="1.2"></line>
  
  <rect x="62" y="142" width="36" height="6" fill="#6b4324" stroke="#2a1808" stroke-width="1.5"></rect>
  
  <circle cx="110" cy="22" r="4" fill="#fff" opacity="0.85"></circle>
  <circle cx="116" cy="14" r="5" fill="#fff" opacity="0.85"></circle>
  <circle cx="106" cy="10" r="3" fill="#fff" opacity="0.85"></circle>
</svg>