<svg xmlns="http://www.w3.org/2000/svg" viewBox="0 0 200 140" width="400" height="280">
  <defs>
    <radialGradient id="pW" cx="0.5" cy="0.45" r="0.6">
      <stop offset="0" stop-color="#bfe6f5"></stop>
      <stop offset="0.6" stop-color="#7fc6e8"></stop>
      <stop offset="1" stop-color="#4d9cc8"></stop>
    </radialGradient>
  </defs>
  
  <path d="M20 70 C20 38 60 22 100 22 C140 22 180 38 180 70 C180 102 140 118 100 118 C60 118 20 102 20 70 Z" fill="#7a5a3a" opacity="0.55"></path>
  
  <path d="M28 70 C28 44 64 30 100 30 C136 30 172 44 172 70 C172 96 136 110 100 110 C64 110 28 96 28 70 Z" fill="url(#pW)" stroke="#3a7aa0" stroke-width="2.5"></path>
  
  <path d="M50 56 C70 50 110 50 130 56" stroke="#eaf7ff" stroke-width="3" stroke-linecap="round" fill="none" opacity="0.85"></path>
  <path d="M60 70 C80 66 100 66 116 70" stroke="#eaf7ff" stroke-width="2.2" stroke-linecap="round" fill="none" opacity="0.75"></path>
  <path d="M70 84 C84 82 100 82 112 84" stroke="#eaf7ff" stroke-width="1.6" stroke-linecap="round" fill="none" opacity="0.6"></path>
  
  <ellipse cx="48" cy="92" rx="10" ry="5" fill="#4f9a48" stroke="#2c5a2a" stroke-width="1.5"></ellipse>
  <path d="M46 92 L42 86" stroke="#2c5a2a" stroke-width="1.5"></path>
  <circle cx="50" cy="89" r="1.8" fill="#f8c0d4" stroke="#a85c7a" stroke-width="0.8"></circle>
  
  <path d="M156 82 C156 70 158 60 160 50" stroke="#3d7a3d" stroke-width="2" fill="none" stroke-linecap="round"></path>
  <path d="M162 84 C162 74 164 64 166 56" stroke="#3d7a3d" stroke-width="2" fill="none" stroke-linecap="round"></path>
  <ellipse cx="160" cy="48" rx="2" ry="6" fill="#8a5a35"></ellipse>
  <ellipse cx="166" cy="54" rx="2" ry="6" fill="#8a5a35"></ellipse>
</svg>