<svg xmlns="http://www.w3.org/2000/svg" viewBox="0 0 64 64" width="128" height="128">
  
  <ellipse cx="32" cy="56" rx="22" ry="3.5" fill="#000" opacity="0.15"></ellipse>
  <path d="M14 48 C10 42 14 36 22 36 C20 30 28 26 34 30 C40 24 50 28 50 36 C56 38 56 46 50 50 C44 52 18 52 14 48 Z" fill="#b8b8c0" stroke="#5a5a64" stroke-width="2" stroke-linejoin="round"></path>
  <path d="M20 42 C24 40 30 40 34 42" stroke="#dcdce4" stroke-width="1.5" fill="none" stroke-linecap="round" opacity="0.8"></path>
  <path d="M38 38 C42 36 46 38 48 40" stroke="#dcdce4" stroke-width="1.5" fill="none" stroke-linecap="round" opacity="0.8"></path>
  <ellipse cx="24" cy="42" rx="1" ry="1.5" fill="#5a5a64" opacity="0.4"></ellipse>
  <ellipse cx="42" cy="44" rx="1" ry="1.5" fill="#5a5a64" opacity="0.4"></ellipse>
</svg>